Coordinates
version=1
nRows=13
nColumns=40
inDegrees=yes

Units are S.I. units (second, meters, Newtons, ...)
If the header above contains a line with 'inDegrees', this indicates whether rotational values are in degrees (yes) or radians (no).

endheader
time	pelvis_tilt	pelvis_list	pelvis_rotation	pelvis_tx	pelvis_ty	pelvis_tz	hip_flexion_r	hip_adduction_r	hip_rotation_r	knee_angle_r	knee_angle_r_beta	ankle_angle_r	subtalar_angle_r	mtp_angle_r	hip_flexion_l	hip_adduction_l	hip_rotation_l	knee_angle_l	knee_angle_l_beta	ankle_angle_l	subtalar_angle_l	mtp_angle_l	lumbar_extension	lumbar_bending	lumbar_rotation	arm_flex_r	arm_add_r	arm_rot_r	elbow_flex_r	pro_sup_r	wrist_flex_r	wrist_dev_r	arm_flex_l	arm_add_l	arm_rot_l	elbow_flex_l	pro_sup_l	wrist_flex_l	wrist_dev_l
      7.76700000	    -22.48474063	     -2.87871981	     -1.35787909	      0.08875094	      1.28131763	     -0.00301650	     82.03607370	     -0.36069669	      8.90918083	    101.67595793	      1.77458024	      9.54867679	    -26.46867337	      0.00000000	     47.42885376	    -14.33257141	     -9.22027352	     38.16671125	      0.66613478	    -13.46016075	    -13.08704387	      0.00000000	    -44.30619429	     -4.25958208	     10.05464439	     56.01949612	     14.55657869	    -35.55088875	     53.34946237	      0.71668787	      0.00000000	      0.00000000	     52.92929939	      6.78441978	    -17.21641857	     40.69879139	      2.76659012	      0.00000000	      0.00000000
      7.78300000	    -22.46450058	     -3.11138516	     -1.41419870	      0.08898986	      1.28114533	     -0.00310825	     83.51224688	     -0.24323841	      8.28962301	    100.23224689	      1.74938272	     10.72994354	    -27.33506794	      0.00000000	     46.34089164	    -14.18756214	     -8.98110000	     39.63984302	      0.69184578	    -12.95568085	    -14.47342102	      0.00000000	    -44.45840308	     -4.00623855	     10.36781155	     55.99594992	     14.52806532	    -35.27623730	     53.42970707	      0.75501095	      0.00000000	      0.00000000	     52.90472940	      7.16399362	    -18.19374354	     40.80491213	      2.59649905	      0.00000000	      0.00000000
      7.80000000	    -22.30040963	     -3.13486857	     -1.04101110	      0.08934130	      1.28125357	     -0.00371436	     84.24152922	     -0.69301263	      7.79755399	     97.94842617	      1.70952253	     11.23511354	    -27.81777092	      0.00000000	     45.77989505	    -13.79143840	     -8.64807427	     42.23160948	      0.73708063	    -11.82991507	    -15.33741487	      0.00000000	    -44.74078223	     -3.65526501	     10.22651387	     56.01968607	     14.60996558	    -35.29314483	     53.46526425	      0.72272882	      0.00000000	      0.00000000	     52.94647024	      7.40373367	    -18.96322003	     40.75232792	      3.30443330	      0.00000000	      0.00000000
      7.81700000	    -22.17664874	     -3.33432290	     -0.32036734	      0.08961291	      1.28136812	     -0.00485262	     84.26476646	     -1.65001656	      6.95124721	     94.65865965	      1.65210528	     11.24627388	    -28.15007636	      0.00000000	     46.27600840	    -13.53333540	     -7.97651168	     46.38534500	      0.80957699	    -10.57769036	    -15.89470200	      0.00000000	    -44.92911169	     -2.88114954	      9.97726268	     55.87500247	     14.43863968	    -34.94729659	     53.57006827	      0.75847639	      0.00000000	      0.00000000	     52.87488979	      7.54139729	    -19.14096507	     40.75864573	      2.80956834	      0.00000000	      0.00000000
      7.83300000	    -21.81188828	     -3.21957054	      0.57164217	      0.09008365	      1.28188321	     -0.00606840	     83.42464928	     -2.91287279	      6.34796043	     90.53942494	      1.58021107	     10.69938048	    -27.90034657	      0.00000000	     47.07910313	    -13.14854601	     -7.59708688	     51.65410346	      0.90153418	     -9.10233606	    -16.41052529	      0.00000000	    -45.33550479	     -2.30068972	      9.39102784	     55.74926432	     14.29951402	    -34.84585560	     53.65624680	      0.76668898	      0.00000000	      0.00000000	     52.92218260	      7.63062968	    -19.30032506	     40.63911884	      2.87879328	      0.00000000	      0.00000000
      7.85000000	    -21.43883603	     -2.94937064	      1.68413331	      0.09035895	      1.28261184	     -0.00760030	     81.93827244	     -4.48539869	      5.65369945	     85.95177521	      1.50014148	      9.56831188	    -27.41390041	      0.00000000	     48.25761957	    -12.65949764	     -7.15092740	     57.28381708	      0.99979122	     -7.75326849	    -16.50535041	      0.00000000	    -45.74938781	     -1.68942499	      8.54459958	     55.63584911	     14.23507872	    -34.77132208	     53.81427939	      0.70424345	      0.00000000	      0.00000000	     52.90432170	      7.74667156	    -19.66489037	     40.61290643	      4.00937299	      0.00000000	      0.00000000
      7.86700000	    -21.26051216	     -2.66813278	      3.09691687	      0.09044071	      1.28315635	     -0.00932671	     79.81250350	     -6.35741446	      4.51907029	     80.76079679	      1.40954181	      8.41506607	    -27.23608530	      0.00000000	     50.12689188	    -12.10545969	     -6.30996533	     63.36547000	      1.10593608	     -6.34773794	    -15.96834712	      0.00000000	    -45.88248570	     -0.91526780	      7.56352426	     55.36350498	     14.21298784	    -34.99035157	     54.10455490	      0.76254268	      0.00000000	      0.00000000	     52.83463021	      7.76229516	    -19.20382715	     40.50234831	      3.10532454	      0.00000000	      0.00000000
      7.88300000	    -20.96055562	     -2.03502935	      4.57705244	      0.09053771	      1.28398324	     -0.01093407	     76.94380407	     -8.36605919	      3.43495606	     75.02739389	      1.30947505	      6.71479580	    -26.52211135	      0.00000000	     52.10798028	    -11.39871827	     -5.67768485	     69.75469997	      1.21744918	     -4.99785358	    -15.16747316	      0.00000000	    -46.13741297	     -0.43513489	      6.32473631	     55.04851745	     14.24360213	    -35.35775323	     54.48420769	      0.75616302	      0.00000000	      0.00000000	     52.81898019	      7.74419849	    -18.73787799	     40.38046194	      2.92577471	      0.00000000	      0.00000000
      7.90000000	    -20.78462025	     -1.45558719	      6.11995242	      0.09042055	      1.28467233	     -0.01259329	     73.78888899	    -10.33586517	      1.99043478	     69.25097909	      1.20865760	      4.48133495	    -25.75530097	      0.00000000	     54.39250929	    -10.60205141	     -4.86094573	     75.88326358	      1.32441280	     -3.70195706	    -14.43390242	      0.00000000	    -46.31057129	      0.08723716	      5.07365227	     54.70161128	     14.32684922	    -35.69835867	     54.95079802	      0.76831606	      0.00000000	      0.00000000	     52.83693504	      7.75502897	    -18.32796711	     40.25159338	      3.08012529	      0.00000000	      0.00000000
      7.91700000	    -20.78506781	     -0.90921906	      7.70863245	      0.09013122	      1.28520143	     -0.01440538	     70.37310342	    -12.25999801	     -0.02093835	     63.39583459	      1.10646605	      1.43376311	    -25.00843479	      0.00000000	     57.01790122	     -9.65552672	     -3.86860620	     81.75565908	      1.42690543	     -2.09494269	    -13.51667440	      0.00000000	    -46.41428878	      0.60003742	      3.84458991	     54.26843383	     14.44975532	    -35.93999666	     55.65481708	      0.76261094	      0.00000000	      0.00000000	     52.88416111	      7.78928648	    -17.85259766	     40.21374927	      3.11163504	      0.00000000	      0.00000000
      7.93300000	    -20.89528565	     -0.57047678	      9.45373924	      0.08966058	      1.28552373	     -0.01621965	     66.53745397	    -14.07501346	     -2.80565400	     57.32419572	      1.00049596	     -2.03315161	    -24.45492211	      0.00000000	     60.04518422	     -8.61875976	     -2.51470363	     87.41315052	      1.52564729	     -0.32192744	    -12.11885950	      0.00000000	    -46.41838191	      1.31528207	      2.63689509	     53.79259037	     14.59101736	    -36.11006054	     56.42989275	      0.76094416	      0.00000000	      0.00000000	     52.94807261	      7.79861648	    -17.28374785	     40.18114562	      2.95020961	      0.00000000	      0.00000000
      7.95000000	    -21.10819656	     -0.27236430	     11.01908055	      0.08911407	      1.28556128	     -0.01784922	     62.83852984	    -15.61712626	     -5.54037887	     51.76417366	      0.90345527	     -5.96527599	    -23.44525806	      0.00000000	     63.10146606	     -7.62130201	     -1.46313788	     92.31607781	      1.61121951	      1.54487983	    -11.03680130	      0.00000000	    -46.29767939	      1.92332214	      1.54572423	     53.37270184	     14.68910610	    -36.34891039	     57.06863734	      0.74951477	      0.00000000	      0.00000000	     53.02284837	      7.78920653	    -16.61300531	     40.10313817	      2.74347036	      0.00000000	      0.00000000
      7.96700000	    -21.45146857	     -0.17378232	     12.40920990	      0.08856641	      1.28531659	     -0.01930306	     59.30813194	    -16.87152412	     -8.23197822	     46.84384667	      0.81757936	    -10.14607083	    -21.95156277	      0.00000000	     66.28126420	     -6.72514494	     -0.62825342	     96.41735811	      1.68280036	      3.65534223	    -10.56893302	      0.00000000	    -45.96426532	      2.55147947	      0.63343404	     53.01350068	     14.71835196	    -36.69851289	     57.46242733	      0.74698674	      0.00000000	      0.00000000	     53.08083232	      7.69088643	    -15.75579493	     39.91122882	      2.63520290	      0.00000000	      0.00000000
